<?xml version="1.0" standalone="no"?>
<!DOCTYPE svg PUBLIC "-//W3C//DTD SVG 20010904//EN"
 "http://www.w3.org/TR/2001/REC-SVG-20010904/DTD/svg10.dtd">
<svg version="1.0" xmlns="http://www.w3.org/2000/svg"
 width="500.000000pt" height="500.000000pt" viewBox="0 0 500.000000 500.000000"
 preserveAspectRatio="xMidYMid meet">
<metadata>
Created by potrace 1.11, written by Peter Selinger 2001-2013
</metadata>
<g transform="translate(0.000000,500.000000) scale(0.100000,-0.100000)"
fill="#000000" stroke="none">
<path d="M0 2500 l0 -2500 2500 0 2500 0 0 2500 0 2500 -2500 0 -2500 0 0
-2500z m2526 1545 c169 -27 307 -82 385 -152 75 -68 97 -139 106 -345 l6 -148
-321 0 -322 0 -1 128 c-1 158 -10 238 -31 258 -21 21 -97 29 -140 15 -61 -20
-62 -25 -66 -451 -4 -424 3 -523 39 -552 21 -18 109 -25 144 -12 34 13 46 61
52 214 l6 150 320 0 320 0 -7 -117 c-15 -265 -65 -342 -278 -431 -133 -55
-257 -75 -473 -75 -344 0 -555 58 -668 183 -83 92 -96 177 -96 600 0 434 8
481 104 573 79 77 214 133 384 162 108 18 425 18 537 0z m-1156 -160 l0 -145
-222 -2 -223 -3 0 -140 0 -140 198 -3 197 -2 0 -135 0 -135 -197 -2 -198 -3
-3 -307 -2 -308 -320 0 -320 0 0 735 0 735 545 0 545 0 0 -145z m2522 -130 l3
-274 140 274 140 275 298 0 c163 0 297 -2 297 -4 0 -2 -82 -152 -181 -333
l-182 -328 202 -402 201 -403 -330 0 -329 0 -21 48 c-12 26 -69 162 -128 302
l-107 255 -3 -302 -2 -303 -323 0 -322 0 3 735 2 735 320 0 320 0 2 -275z
m560 -1314 c144 -37 247 -109 302 -211 38 -69 46 -161 46 -530 0 -350 -9 -461
-42 -528 -47 -99 -161 -179 -308 -219 -50 -14 -104 -18 -240 -18 -153 0 -185
3 -257 24 -142 40 -244 116 -293 215 -31 65 -40 179 -40 521 0 470 11 527 118
627 77 72 176 115 317 138 93 14 307 4 397 -19z m-3613 -314 c74 -171 138
-316 142 -321 5 -6 9 133 9 312 l0 322 213 -2 212 -3 3 -738 2 -737 -226 2
-226 3 -54 135 c-29 74 -87 221 -128 325 l-75 190 -1 -327 0 -328 -215 0 -215
0 0 740 0 740 213 0 212 0 134 -313z m1171 306 c1 -35 100 -966 103 -969 2 -3
8 33 11 78 14 162 111 813 132 881 5 16 26 17 264 17 l258 0 6 -27 c11 -56
106 -935 106 -980 0 -9 2 -14 4 -12 2 2 12 81 21 174 18 189 63 512 98 710
l23 130 247 3 c231 2 247 1 247 -15 0 -10 -27 -189 -60 -398 -32 -209 -83
-534 -112 -722 l-53 -343 -317 0 -317 0 -10 38 c-23 89 -82 371 -111 532 -28
156 -40 206 -40 172 0 -20 -125 -686 -136 -724 -5 -17 -29 -18 -320 -18 -173
0 -314 3 -314 6 0 9 -130 847 -185 1189 -23 149 -41 273 -38 278 2 4 114 7
249 7 134 0 244 -3 244 -7z"/>
<path d="M331 3487 c-15 -18 9 -50 34 -46 27 6 43 36 26 51 -12 11 -13 10 -8
-4 3 -10 2 -20 -3 -23 -6 -4 -10 3 -10 14 0 24 -22 28 -39 8z m16 -19 c-3 -8
-6 -5 -6 6 -1 11 2 17 5 13 3 -3 4 -12 1 -19z"/>
<path d="M305 3421 c-3 -6 1 -11 9 -11 9 0 15 -3 15 -7 -4 -27 3 -34 34 -31
27 2 32 7 32 28 0 22 -5 25 -42 28 -22 2 -44 -2 -48 -7z m80 -26 c0 -5 -10
-11 -22 -13 -16 -2 -23 2 -23 13 0 11 7 15 23 13 12 -2 22 -7 22 -13z"/>
<path d="M330 3318 c0 -14 8 -18 38 -17 34 2 34 2 7 6 -16 3 -33 10 -37 16 -5
8 -8 6 -8 -5z"/>
<path d="M332 3268 c-7 -7 -8 -17 -2 -27 12 -23 1 -69 -19 -74 -9 -3 7 -5 35
-6 42 -1 51 2 51 17 0 9 -4 22 -9 29 -6 7 -4 19 4 32 10 17 10 23 -1 33 -12
11 -13 10 -8 -4 3 -10 2 -20 -3 -23 -6 -4 -10 3 -10 14 0 23 -19 28 -38 9z
m15 -20 c-3 -8 -6 -5 -6 6 -1 11 2 17 5 13 3 -3 4 -12 1 -19z m33 -64 c0 -9
-7 -14 -17 -12 -25 5 -28 28 -4 28 12 0 21 -6 21 -16z"/>
<path d="M327 3128 c-2 -7 0 -21 5 -30 6 -13 5 -18 -6 -18 -8 0 -18 -4 -21
-10 -4 -6 12 -10 40 -10 31 0 45 4 44 13 -1 6 1 20 6 30 5 11 3 23 -5 30 -10
10 -12 8 -7 -5 3 -10 2 -20 -3 -23 -6 -4 -10 3 -10 14 0 23 -35 30 -43 9z m20
-20 c-3 -8 -6 -5 -6 6 -1 11 2 17 5 13 3 -3 4 -12 1 -19z"/>
<path d="M374 3039 c-3 -6 -15 -8 -26 -6 -14 4 -18 2 -14 -9 3 -9 -1 -14 -14
-14 -13 0 -20 -7 -20 -19 0 -25 17 -30 65 -21 39 7 39 8 8 9 -18 0 -33 6 -33
11 0 6 15 11 33 11 18 1 24 3 14 6 -18 5 -18 6 -1 24 9 10 12 19 6 19 -6 0
-14 -5 -18 -11z"/>
<path d="M336 2941 c-4 -5 6 -11 21 -13 36 -4 35 -21 -3 -30 -28 -6 -27 -6 6
-5 30 2 35 5 35 27 0 20 -6 26 -27 28 -14 2 -29 -1 -32 -7z"/>
<path d="M326 2864 c-7 -17 0 -34 14 -34 5 0 7 8 3 18 -4 11 1 9 14 -7 23 -28
44 -21 41 14 -2 21 -8 25 -34 25 -20 0 -34 -6 -38 -16z m59 -14 c3 -5 1 -10
-4 -10 -6 0 -11 5 -11 10 0 6 2 10 4 10 3 0 8 -4 11 -10z"/>
<path d="M320 2802 c-5 -2 -4 -11 3 -23 8 -13 22 -19 47 -17 l35 1 -32 4 c-41
5 -43 23 -3 23 17 0 30 3 30 8 0 7 -61 10 -80 4z"/>
<path d="M323 2733 c15 -2 39 -2 55 0 15 2 2 4 -28 4 -30 0 -43 -2 -27 -4z"/>
<path d="M331 2702 c-12 -23 3 -42 35 -42 26 0 39 27 23 46 -16 20 -47 17 -58
-4z m47 -15 c2 -10 -3 -17 -12 -17 -18 0 -29 16 -21 31 9 14 29 6 33 -14z"/>
<path d="M337 2644 c-4 -4 -7 -18 -7 -31 0 -21 4 -23 48 -23 26 0 43 4 37 8
-5 4 -15 16 -21 27 -11 21 -44 31 -57 19z m43 -30 c0 -9 -7 -14 -17 -12 -25 5
-28 28 -4 28 12 0 21 -6 21 -16z"/>
<path d="M4154 2189 c-18 -20 -19 -43 -19 -496 l0 -475 24 -19 c27 -22 69 -25
95 -6 30 22 35 90 35 522 1 401 -3 469 -31 487 -26 16 -84 9 -104 -13z"/>
</g>
</svg>
